<svg width="39" height="39" viewBox="0 0 39 39" fill="none" xmlns="http://www.w3.org/2000/svg">
<path d="M39 3.14167C39 1.40833 37.5917 0 35.8583 0H3.14167C1.40833 0 0 1.40833 0 3.14167C0 3.9 0.281666 4.65833 0.801666 5.22167L17.3333 23.8333V34.6667H8.66667C7.475 34.6667 6.5 35.6417 6.5 36.8333C6.5 38.025 7.475 39 8.66667 39H30.3333C31.525 39 32.5 38.025 32.5 36.8333C32.5 35.6417 31.525 34.6667 30.3333 34.6667H21.6667V23.8333L38.1983 5.22167C38.7183 4.65833 39 3.9 39 3.14167ZM9.59833 8.66667L5.76333 4.33333H33.2583L29.4017 8.66667H9.59833Z" fill="#2F3543"/>
</svg>
